<?xml version="1.0" standalone="no"?>
<!DOCTYPE svg PUBLIC "-//W3C//DTD SVG 20010904//EN"
 "http://www.w3.org/TR/2001/REC-SVG-20010904/DTD/svg10.dtd">
<svg version="1.0" xmlns="http://www.w3.org/2000/svg"
 width="1062.000000pt" height="915.000000pt" viewBox="0 0 1062.000000 915.000000"
 preserveAspectRatio="xMidYMid meet">

<g transform="translate(0.000000,915.000000) scale(0.100000,-0.100000)"
fill="#000000" stroke="none">
<path d="M4210 8939 c-14 -5 -32 -8 -42 -6 -18 5 -203 -19 -403 -53 -182 -30
-216 -37 -264 -54 -24 -9 -53 -16 -65 -16 -31 0 -528 -166 -606 -202 -97 -46
-346 -170 -423 -211 -74 -40 -306 -193 -404 -266 -34 -25 -88 -64 -119 -86
-89 -62 -191 -154 -383 -345 -213 -213 -314 -324 -377 -416 -26 -38 -59 -83
-73 -99 -118 -136 -353 -544 -476 -825 -20 -47 -47 -107 -61 -135 -31 -66
-155 -438 -165 -495 -7 -43 -26 -120 -54 -225 -15 -53 -27 -127 -30 -185 -1
-19 -13 -96 -26 -170 -21 -126 -23 -163 -23 -540 -1 -278 3 -422 11 -460 6
-30 16 -91 22 -135 29 -230 58 -376 106 -530 19 -60 39 -132 44 -160 12 -59
47 -163 61 -180 6 -7 24 -51 40 -99 15 -47 35 -98 44 -113 8 -16 31 -66 51
-113 56 -131 90 -200 155 -310 33 -56 60 -104 60 -107 0 -9 88 -153 121 -198
16 -22 50 -69 74 -105 75 -109 157 -216 215 -280 93 -104 494 -502 551 -548
30 -23 77 -62 106 -85 115 -93 268 -203 348 -250 39 -22 104 -61 145 -87 41
-26 98 -58 125 -72 28 -14 109 -54 180 -90 72 -36 148 -71 170 -78 22 -7 58
-22 80 -33 51 -26 563 -197 589 -197 11 0 42 -6 70 -14 177 -50 330 -73 591
-91 314 -21 903 -8 989 21 21 8 52 14 68 14 32 0 141 22 224 46 28 8 78 14
111 13 48 -1 73 5 126 30 46 22 92 35 146 41 61 7 96 18 147 45 37 19 76 35
86 35 48 0 76 44 46 70 -26 21 -151 100 -159 100 -4 0 -28 16 -53 35 -51 39
-115 75 -131 75 -6 0 -24 14 -41 31 -16 17 -44 38 -63 46 -36 15 -76 43 -146
100 -22 18 -64 52 -93 75 -29 24 -84 71 -122 106 -38 34 -74 62 -80 62 -6 0
-54 42 -106 94 -113 113 -156 133 -243 116 -66 -12 -560 -12 -656 0 -38 5
-113 16 -165 25 -52 9 -126 20 -165 26 -38 5 -110 23 -160 38 -49 15 -121 36
-160 45 -38 9 -97 29 -130 45 -33 16 -82 36 -110 46 -27 9 -65 25 -83 36 -18
10 -39 19 -45 19 -22 0 -267 136 -376 209 -135 90 -197 133 -206 145 -5 6 -26
23 -45 36 -92 62 -340 296 -400 375 -20 28 -53 66 -71 87 -163 176 -367 504
-504 813 -39 87 -145 406 -145 435 0 14 -6 45 -14 70 -14 41 -37 176 -57 325
-4 33 -8 224 -9 425 -1 347 1 372 25 510 37 215 47 255 125 486 98 293 188
486 325 691 39 58 84 126 100 152 103 162 474 546 629 651 21 14 57 41 82 60
24 19 56 44 71 56 57 42 321 193 428 244 61 29 123 59 138 67 49 26 440 153
470 153 16 0 37 5 48 11 19 10 217 43 354 60 94 11 671 10 765 -1 166 -20 345
-55 445 -89 33 -11 70 -21 81 -21 23 0 192 -58 304 -104 134 -55 376 -180 479
-246 255 -166 304 -206 554 -457 241 -240 342 -359 421 -498 16 -27 40 -66 55
-85 50 -67 204 -377 231 -465 7 -22 21 -56 31 -75 26 -51 59 -147 59 -173 0
-12 11 -55 24 -97 13 -41 29 -100 35 -130 26 -126 31 -149 45 -237 28 -164 22
-206 -32 -234 -27 -15 -91 -2 -157 33 -22 11 -64 29 -94 39 -30 10 -60 24 -67
30 -18 15 -595 207 -679 226 -131 29 -318 61 -395 68 -25 2 -90 9 -145 15
-162 19 -326 7 -600 -45 -189 -36 -405 -128 -550 -236 -22 -16 -56 -40 -75
-53 -38 -26 -252 -244 -286 -292 -115 -162 -160 -255 -222 -449 -75 -235 -74
-233 -76 -485 0 -155 18 -303 48 -374 9 -21 16 -50 16 -64 0 -33 49 -180 71
-212 9 -14 22 -45 29 -70 19 -75 165 -339 270 -490 17 -25 57 -83 90 -130 64
-94 139 -185 242 -294 37 -39 80 -89 96 -112 16 -22 67 -74 113 -115 46 -41
122 -110 170 -154 129 -118 196 -176 249 -215 27 -19 81 -62 121 -95 83 -69
149 -119 249 -190 39 -27 85 -60 103 -73 113 -82 467 -301 562 -348 22 -11 78
-41 125 -66 177 -94 205 -108 240 -119 19 -6 55 -22 80 -34 176 -87 247 -115
475 -191 176 -58 249 -79 365 -105 25 -6 61 -14 80 -19 44 -11 198 -36 315
-53 182 -25 548 -9 648 29 20 8 50 14 65 14 72 0 412 138 505 205 15 11 43 31
62 45 19 14 51 36 71 50 63 42 209 188 250 248 21 31 48 68 60 82 20 23 124
221 166 316 29 66 58 156 58 179 0 13 7 42 16 66 12 36 15 92 16 293 0 242 -7
322 -38 426 -7 25 -16 61 -19 80 -10 49 -33 117 -49 143 -7 12 -22 46 -31 76
-19 58 -122 264 -173 346 -17 28 -40 67 -52 87 -11 20 -24 39 -29 43 -5 3 -24
29 -41 58 -30 51 -40 65 -152 208 -141 180 -164 207 -307 359 -47 50 -92 90
-101 90 -9 0 -24 -8 -33 -18 -20 -22 -52 -111 -62 -173 -4 -24 -24 -98 -46
-164 -21 -67 -39 -130 -39 -141 0 -25 -45 -160 -63 -188 -7 -12 -26 -57 -41
-101 -29 -83 -68 -177 -116 -280 -52 -111 -55 -149 -15 -196 31 -38 151 -239
160 -271 4 -13 18 -41 31 -64 13 -23 27 -68 33 -100 5 -32 14 -72 20 -87 6
-16 11 -72 11 -126 0 -86 -3 -104 -26 -147 -59 -112 -120 -161 -261 -209 -81
-27 -83 -27 -290 -23 -160 4 -218 9 -252 22 -24 9 -54 16 -66 16 -30 0 -431
135 -464 157 -31 19 -80 74 -81 89 0 21 60 127 97 168 21 23 56 66 78 95 22
30 54 71 70 92 121 156 238 328 317 469 81 144 237 467 258 535 7 22 20 54 30
70 28 48 133 393 151 495 4 25 15 65 24 90 9 25 25 101 36 170 11 69 27 166
35 215 9 50 18 110 19 135 2 25 8 88 14 140 13 118 13 450 0 590 -5 58 -11
137 -13 175 -2 39 -10 108 -19 155 -8 47 -23 126 -31 175 -23 132 -32 172 -51
250 -31 123 -167 538 -202 612 -18 40 -33 77 -33 82 0 5 -23 56 -50 112 -138
282 -206 399 -392 672 -149 220 -437 541 -643 720 -264 228 -402 328 -680 498
-129 79 -440 239 -465 239 -8 0 -31 10 -50 21 -19 12 -75 35 -125 51 -49 16
-101 36 -114 45 -26 17 -164 63 -188 63 -8 0 -58 13 -111 29 -89 26 -189 50
-302 72 -25 5 -66 13 -92 19 -26 5 -62 10 -81 10 -19 0 -47 4 -63 10 -25 8
-114 20 -274 36 -107 11 -676 13 -700 3z m1995 -4837 c39 -5 84 -14 101 -19
17 -6 59 -14 93 -18 105 -12 423 -123 571 -200 25 -12 56 -26 70 -30 53 -15
449 -218 470 -240 20 -21 22 -32 18 -97 -4 -74 -14 -101 -108 -288 -65 -131
-174 -320 -214 -372 -12 -15 -32 -43 -46 -63 -94 -135 -137 -188 -255 -313
-110 -116 -176 -179 -222 -209 -21 -14 -27 -14 -69 2 -74 28 -214 149 -482
416 -207 206 -286 294 -408 456 -24 33 -95 154 -137 233 -91 174 -120 365 -78
500 18 57 33 81 74 124 58 58 164 116 218 117 19 0 43 4 54 9 23 11 248 5 350
-8z"/>
</g>
</svg>
